<svg xmlns="http://www.w3.org/2000/svg" width="32" height="32"><path data-name="BOOK 2" d="M31 26l-14 6a2 2 0 01-2 0L1 26a2 2 0 01-1-1V2a2 2 0 011-2 2 2 0 011 0l14 6 14-6a2 2 0 012 2v23a2 2 0 01-1 1zM15 9L3 4v20l12 4V9zm14-5L18 9v19l11-4V4zm-9 7l5-3a2 2 0 011 0 2 2 0 011 3l-6 2a2 2 0 01-1 0 2 2 0 010-2zm0 5l5-2a2 2 0 011-1 2 2 0 011 3l-6 3a1 1 0 01-1 0 2 2 0 010-3zm0 6l5-3a2 2 0 011 0 2 2 0 011 3l-6 2a2 2 0 01-1 0 2 2 0 010-2zM6 8a2 2 0 011 0l5 3a2 2 0 01-1 2l-6-2a2 2 0 011-3zm0 5a2 2 0 011 1l5 2a2 2 0 01-1 3l-6-3a2 2 0 011-2zm0 6a2 2 0 011 0l5 3a2 2 0 01-1 2l-6-2a2 2 0 011-3z" fill="#95e1d3" fill-rule="evenodd"/></svg>