<svg aria-hidden="true" style="position: absolute; width: 0; height: 0; overflow: hidden;" version="1.1" xmlns="http://www.w3.org/2000/svg" xmlns:xlink="http://www.w3.org/1999/xlink">
<defs>
<symbol id="icon-cart" viewBox="0 0 40 32">
<path d="M40.003 7.070v0l-5.656 12.544c-0.282 0.626-0.884 1.063-1.592 1.104l-0.005 0-16.238 1.083 0.935 2.684h17.698c2.078 0 3.763 1.685 3.763 3.763s-1.685 3.763-3.763 3.763c-2.078 0-3.762-1.683-3.763-3.761v-0h-17.561c-0.001 2.077-1.686 3.761-3.763 3.761s-3.763-1.685-3.763-3.763 1.685-3.763 3.763-3.763h3.398l-7.253-20.697h-4.31c-1.039 0-1.882-0.842-1.882-1.882s0.842-1.882 1.882-1.882h5.656c0.816 0.006 1.51 0.525 1.775 1.25l0.004 0.013 1.095 3.131h27.847c0.003 0 0.006-0 0.009-0 1.040 0 1.883 0.842 1.884 1.881v0c-0.006 0.278-0.064 0.542-0.165 0.783l0.005-0.014zM11.745 8.181l3.467 9.937 16.17-1.079 3.991-8.858h-23.628z"></path>
</symbol>
<symbol id="icon-glass" viewBox="0 0 32 32">
<path  d="M31.101 26.862c0.541 0.543 0.876 1.292 0.876 2.119 0 1.657-1.343 3-3 3-0.83 0-1.581-0.337-2.124-0.881l-0-0-8.769-8.78c-1.753 1.056-3.87 1.68-6.132 1.68-6.645 0-12.032-5.387-12.032-12.032s5.387-12.032 12.032-12.032c6.645 0 12.032 5.387 12.032 12.032 0 2.255-0.62 4.365-1.7 6.169l0.030-0.055 8.788 8.78zM12.001 3.016c-4.963 0-8.987 4.024-8.987 8.987s4.024 8.987 8.987 8.987c4.963 0 8.987-4.024 8.987-8.987v0c-0.003-4.962-4.025-8.984-8.987-8.987h-0z"></path>
</symbol>
<symbol id="icon-creativity_3" viewBox="0 0 32 32">
<path  d="M30.968 25.29h-10.323v3.097l2.065 2.065h-13.419l2.065-2.065v-3.097h-9.29c-0.080 0.011-0.173 0.017-0.267 0.017-0.767 0-1.437-0.418-1.792-1.039l-0.005-0.010v-20.645c0-1.14 0.924-2.065 2.065-2.065v0h28.903c0.631 0.361 1.050 1.031 1.050 1.798 0 0.094-0.006 0.187-0.018 0.277l0.001-0.011v20.645c-0.211 0.46-0.572 0.821-1.019 1.027l-0.013 0.005zM29.935 3.613h-27.871v17.548h27.871v-17.548zM13.419 10.839c0.155-0.042 0.333-0.066 0.516-0.066s0.361 0.024 0.531 0.069l-0.014-0.003 1.032 1.032 2.065-3.097c0.396-0.396 0.944-0.641 1.548-0.641 1.209 0 2.19 0.98 2.19 2.19 0 0.605-0.245 1.152-0.641 1.548l-4.129 4.129c-0.38 0.43-0.933 0.699-1.548 0.699s-1.168-0.269-1.546-0.697l-0.002-0.002-2.065-2.065c-0.219-0.323-0.349-0.72-0.349-1.149 0-0.895 0.57-1.658 1.367-1.944l0.014-0.005z"></path>
</symbol>
<symbol id="icon-digital_6" viewBox="0 0 32 32">
<path   d="M31 32h-29c-0.078 0.011-0.167 0.017-0.258 0.017-0.743 0-1.392-0.405-1.736-1.007l-0.005-0.010v-29c0-1.105 0.895-2 2-2v0h29c0.611 0.35 1.017 0.998 1.017 1.742 0 0.091-0.006 0.181-0.018 0.269l0.001-0.010v29c-0.205 0.446-0.554 0.795-0.988 0.995l-0.012 0.005zM29 3h-26v26h26v-26zM7 5h5c0.416 0.368 0.677 0.904 0.677 1.5s-0.261 1.132-0.675 1.498l-0.002 0.002h-4v4c-0.368 0.416-0.904 0.677-1.5 0.677s-1.132-0.261-1.498-0.675l-0.002-0.002v-7h2zM5 20c0.368-0.416 0.904-0.677 1.5-0.677s1.132 0.261 1.498 0.675l0.002 0.002v5h4c0.416 0.368 0.677 0.904 0.677 1.5s-0.261 1.132-0.675 1.498l-0.002 0.002h-7v-8zM20 5h8v7c-0.368 0.416-0.904 0.677-1.5 0.677s-1.132-0.261-1.498-0.675l-0.002-0.002v-4h-5c-0.416-0.368-0.677-0.904-0.677-1.5s0.261-1.132 0.675-1.498l0.002-0.002zM20 25h5v-5c0.368-0.416 0.904-0.677 1.5-0.677s1.132 0.261 1.498 0.675l0.002 0.002v8h-8c-0.416-0.368-0.677-0.904-0.677-1.5s0.261-1.132 0.675-1.498l0.002-0.002z"></path>
</symbol>
<symbol id="icon-html_css_5" viewBox="0 0 32 32">
<path  d="M32 16.5c0.051 0.149 0.081 0.321 0.081 0.5 0 0.873-0.708 1.581-1.581 1.581-0.694 0-1.284-0.448-1.497-1.070l-0.003-0.011-13-13-13 13c-0.205 0.446-0.554 0.795-0.988 0.995l-0.012 0.005c-1.105 0-2-0.895-2-2v0c-0.084-0.143-0.134-0.316-0.134-0.5s0.050-0.357 0.137-0.505l-0.003 0.005 15-15c0.15-0.040 0.322-0.064 0.5-0.064s0.35 0.023 0.514 0.067l-0.014-0.003c0.143-0.084 0.316-0.134 0.5-0.134s0.357 0.050 0.505 0.137l-0.005-0.003 6 6v-1c0.368-0.416 0.904-0.677 1.5-0.677s1.132 0.261 1.498 0.675l0.002 0.002v4l6 6c0.084 0.143 0.134 0.316 0.134 0.5s-0.050 0.357-0.137 0.505l0.003-0.005zM29 19.5v10c0.011 0.078 0.017 0.167 0.017 0.258 0 0.743-0.405 1.392-1.007 1.736l-0.010 0.005h-3v-12h-6v12h-14c-1.105 0-2-0.895-2-2v0-10l13-13zM14 19.5h-6v6h6v-6z"></path>
</symbol>
<symbol id="icon-photography_1" viewBox="0 0 32 32">
<path  d="M31 10.5c-1.662-4.128-4.872-7.338-8.893-8.962l-0.107-0.038c1.152-1.152 2.743-1.864 4.5-1.864 3.515 0 6.364 2.849 6.364 6.364 0 1.757-0.712 3.348-1.864 4.5v0zM31 16.5c0.001 0.060 0.001 0.13 0.001 0.201 0 3.816-1.527 7.276-4.004 9.802l0.002-0.002 2 2c0.369 0.188 0.618 0.565 0.618 1 0 0.617-0.501 1.118-1.118 1.118-0.182 0-0.354-0.044-0.506-0.121l0.006 0.003c-0.287 0.168-0.632 0.268-1 0.268s-0.713-0.099-1.009-0.273l0.009 0.005-2-2c-2.232 1.571-5.006 2.511-8 2.511s-5.768-0.94-8.045-2.541l0.045 0.030-2 2c-0.142 0.978-0.974 1.721-1.98 1.721-1.105 0-2-0.895-2-2 0-0.728 0.389-1.366 0.971-1.716l0.009-0.005 2-2c-1.825-2.341-2.926-5.325-2.926-8.566 0-7.732 6.268-14 14-14 7.227 0 13.175 5.476 13.921 12.505l0.005 0.061zM16 5.5c-6.609 0.024-11.958 5.387-11.958 12 0 6.627 5.373 12 12 12s12-5.373 12-12c0-0.352-0.015-0.7-0.045-1.045l0.003 0.045c-0.532-6.183-5.683-11-11.958-11-0.015 0-0.029 0-0.044 0h0.002zM22 18.5h-6c-0.611-0.35-1.017-0.998-1.017-1.742 0-0.091 0.006-0.181 0.018-0.269l-0.001 0.010v-8c0.368-0.416 0.904-0.677 1.5-0.677s1.132 0.261 1.498 0.675l0.002 0.002v7h4c0.416 0.368 0.677 0.904 0.677 1.5s-0.261 1.132-0.675 1.498l-0.002 0.002zM1 10.5c-0.962-1.060-1.551-2.474-1.551-4.025 0-3.314 2.686-6 6-6 0.194 0 0.386 0.009 0.575 0.027l-0.024-0.002c0.19-0.021 0.41-0.034 0.633-0.034 1.257 0 2.423 0.386 3.387 1.047l-0.021-0.013c-4.128 1.662-7.338 4.872-8.962 8.893l-0.038 0.107z"></path>
</symbol>
<symbol id="icon-seo_4" viewBox="0 0 32 32">
<path  d="M31 26l-14 6c-0.287 0.168-0.632 0.268-1 0.268s-0.713-0.099-1.009-0.273l0.009 0.005-14-6c-0.446-0.205-0.795-0.554-0.995-0.988l-0.005-0.012v-23c-0.011-0.078-0.017-0.167-0.017-0.258 0-0.743 0.405-1.392 1.007-1.736l0.010-0.005c0.15-0.040 0.322-0.064 0.5-0.064s0.35 0.023 0.514 0.067l-0.014-0.003 14 6 14-6c1.105 0 2 0.895 2 2v0 23c-0.205 0.446-0.554 0.795-0.988 0.995l-0.012 0.005zM15 9l-12-5v20l12 4v-19zM29 4l-11 5v19l11-4v-20zM20 11l5-3c0.15-0.040 0.322-0.064 0.5-0.064s0.35 0.023 0.514 0.067l-0.014-0.003c0.786 0.281 1.338 1.020 1.338 1.887 0 0.415-0.126 0.8-0.343 1.12l0.005-0.007-6 2c-0.15 0.040-0.322 0.063-0.5 0.063s-0.35-0.023-0.514-0.067l0.014 0.003c-0.168-0.287-0.268-0.632-0.268-1s0.099-0.713 0.273-1.009l-0.005 0.009zM20 16l5-2c0.205-0.446 0.554-0.795 0.988-0.995l0.012-0.005c0.786 0.281 1.338 1.020 1.338 1.887 0 0.415-0.126 0.8-0.343 1.12l0.005-0.007-6 3c-0.143 0.084-0.316 0.134-0.5 0.134s-0.357-0.050-0.505-0.137l0.005 0.003c-0.416-0.368-0.677-0.904-0.677-1.5s0.261-1.132 0.675-1.498l0.002-0.002zM20 22l5-3c0.15-0.040 0.322-0.064 0.5-0.064s0.35 0.023 0.514 0.067l-0.014-0.003c0.786 0.282 1.338 1.020 1.338 1.887 0 0.415-0.126 0.8-0.343 1.12l0.005-0.007-6 2c-0.15 0.040-0.322 0.064-0.5 0.064s-0.35-0.023-0.514-0.067l0.014 0.003c-0.168-0.287-0.268-0.632-0.268-1s0.099-0.713 0.273-1.009l-0.005 0.009zM6 8c0.15-0.040 0.322-0.064 0.5-0.064s0.35 0.023 0.514 0.067l-0.014-0.003 5 3c0.011 0.078 0.017 0.167 0.017 0.258 0 0.743-0.405 1.392-1.007 1.736l-0.010 0.005-6-2c-0.212-0.312-0.338-0.698-0.338-1.113 0-0.867 0.552-1.606 1.324-1.883l0.014-0.004zM6 13c0.446 0.205 0.795 0.554 0.995 0.988l0.005 0.012 5 2c0.212 0.312 0.338 0.698 0.338 1.113 0 0.867-0.552 1.606-1.324 1.883l-0.014 0.004-6-3c-0.011-0.078-0.017-0.167-0.017-0.258 0-0.743 0.405-1.392 1.007-1.736l0.010-0.005zM6 19c0.15-0.040 0.322-0.064 0.5-0.064s0.35 0.023 0.514 0.067l-0.014-0.003 5 3c0.011 0.078 0.017 0.167 0.017 0.258 0 0.743-0.405 1.392-1.007 1.736l-0.010 0.005-6-2c-0.212-0.312-0.338-0.698-0.338-1.113 0-0.867 0.552-1.606 1.324-1.883l0.014-0.004z"></path>
</symbol>
<symbol id="icon-web_design_2" viewBox="0 0 32 32">
<path  d="M31 32h-29c-0.078 0.011-0.167 0.017-0.258 0.017-0.743 0-1.392-0.405-1.736-1.007l-0.005-0.010v-29c0-1.105 0.895-2 2-2v0h29c0.611 0.35 1.017 0.998 1.017 1.742 0 0.091-0.006 0.181-0.018 0.269l0.001-0.010v29c-0.205 0.446-0.554 0.795-0.988 0.995l-0.012 0.005zM29 3h-26v26h26v-26zM5 16l4-2c0.287-0.168 0.632-0.268 1-0.268s0.713 0.1 1.009 0.273l-0.009-0.005 6 4 8-5c0-1.105 0.895-2 2-2s2 0.895 2 2c0 1.105-0.895 2-2 2v0l-9 6c0.084 0.143 0.134 0.316 0.134 0.5s-0.050 0.357-0.137 0.505l0.003-0.005c-0.446-0.205-0.795-0.554-0.995-0.988l-0.005-0.012-7-4-3 2c-0.143 0.084-0.316 0.134-0.5 0.134s-0.357-0.050-0.505-0.137l0.005 0.003c-0.786-0.282-1.338-1.020-1.338-1.887 0-0.415 0.126-0.8 0.343-1.12l-0.005 0.007z"></path>
</symbol>
</defs>
</svg>
